# xmcd CD database file
#
# Track frame offsets:
#	150
#	18142
#	34627
#	50964
#	71776
#	88183
#	104853
#	120883
#	141323
#	157286
#	178330
#
# Disc length: 2765 seconds
#
# Revision: 1
# Processed by: cddbd v1.5.2PL0 Copyright (c) Steve Scherf et al.
# Submitted via: CDex 1.51
#
DISCID=a50acb0b
DTITLE=Milan Polak - Murphy's Law
DYEAR=2009
DGENRE=Jazz
TTITLE0=Murphys Law
TTITLE1=No God
TTITLE2=Inner Truth
TTITLE3=Losing Me
TTITLE4=Wannabes
TTITLE5=The Opposite
TTITLE6=Sheeple
TTITLE7=Torn
TTITLE8=Alien Nation
TTITLE9=Fake
TTITLE10=The Mystery
EXTD=YEAR: 2009
EXTT0=
EXTT1=
EXTT2=
EXTT3=
EXTT4=
EXTT5=
EXTT6=
EXTT7=
EXTT8=
EXTT9=
EXTT10=
PLAYORDER=
